<mxfile host="app.diagrams.net" agent="Mozilla/5.0 (Windows NT 10.0; Win64; x64; rv:128.0) Gecko/20100101 Firefox/128.0" version="24.7.6">
  <diagram name="Page-1" id="avt6d1xjwXzlhPMLMys6">
    <mxGraphModel dx="1210" dy="612" grid="1" gridSize="10" guides="1" tooltips="1" connect="1" arrows="1" fold="1" page="1" pageScale="1" pageWidth="827" pageHeight="1169" math="0" shadow="0">
      <root>
        <mxCell id="0" />
        <mxCell id="1" parent="0" />
        <mxCell id="QXeWcQ7BzbgW_pBV_HTd-1" value="Host" style="rounded=1;whiteSpace=wrap;html=1;" parent="1" vertex="1">
          <mxGeometry x="157" y="120" width="120" height="40" as="geometry" />
        </mxCell>
        <mxCell id="QXeWcQ7BzbgW_pBV_HTd-2" value="Client1" style="rounded=1;whiteSpace=wrap;html=1;" parent="1" vertex="1">
          <mxGeometry x="317" y="120" width="120" height="40" as="geometry" />
        </mxCell>
        <mxCell id="QXeWcQ7BzbgW_pBV_HTd-3" value="Client2" style="rounded=1;whiteSpace=wrap;html=1;" parent="1" vertex="1">
          <mxGeometry x="477" y="120" width="120" height="40" as="geometry" />
        </mxCell>
        <mxCell id="QXeWcQ7BzbgW_pBV_HTd-4" value="" style="endArrow=none;dashed=1;html=1;rounded=0;entryX=0.5;entryY=1;entryDx=0;entryDy=0;" parent="1" source="QXeWcQ7BzbgW_pBV_HTd-10" target="QXeWcQ7BzbgW_pBV_HTd-1" edge="1">
          <mxGeometry width="50" height="50" relative="1" as="geometry">
            <mxPoint x="220" y="784" as="sourcePoint" />
            <mxPoint x="440" y="290" as="targetPoint" />
          </mxGeometry>
        </mxCell>
        <mxCell id="QXeWcQ7BzbgW_pBV_HTd-5" value="" style="endArrow=none;dashed=1;html=1;rounded=0;entryX=0.5;entryY=1;entryDx=0;entryDy=0;" parent="1" source="QXeWcQ7BzbgW_pBV_HTd-18" target="QXeWcQ7BzbgW_pBV_HTd-2" edge="1">
          <mxGeometry width="50" height="50" relative="1" as="geometry">
            <mxPoint x="380" y="800" as="sourcePoint" />
            <mxPoint x="379.5" y="200" as="targetPoint" />
          </mxGeometry>
        </mxCell>
        <mxCell id="QXeWcQ7BzbgW_pBV_HTd-6" value="" style="endArrow=none;dashed=1;html=1;rounded=0;entryX=0.5;entryY=1;entryDx=0;entryDy=0;" parent="1" source="QXeWcQ7BzbgW_pBV_HTd-22" target="QXeWcQ7BzbgW_pBV_HTd-3" edge="1">
          <mxGeometry width="50" height="50" relative="1" as="geometry">
            <mxPoint x="540" y="800" as="sourcePoint" />
            <mxPoint x="539.5" y="200" as="targetPoint" />
          </mxGeometry>
        </mxCell>
        <mxCell id="QXeWcQ7BzbgW_pBV_HTd-7" value="&lt;div&gt;Signaling&lt;/div&gt;" style="rounded=1;whiteSpace=wrap;html=1;" parent="1" vertex="1">
          <mxGeometry x="637" y="120" width="120" height="40" as="geometry" />
        </mxCell>
        <mxCell id="QXeWcQ7BzbgW_pBV_HTd-8" value="" style="endArrow=none;dashed=1;html=1;rounded=0;entryX=0.5;entryY=1;entryDx=0;entryDy=0;" parent="1" edge="1">
          <mxGeometry width="50" height="50" relative="1" as="geometry">
            <mxPoint x="696.5" y="160" as="sourcePoint" />
            <mxPoint x="696.5" y="160" as="targetPoint" />
          </mxGeometry>
        </mxCell>
        <mxCell id="QXeWcQ7BzbgW_pBV_HTd-9" value="WebRTC Sequence Example" style="rounded=0;whiteSpace=wrap;html=1;" parent="1" vertex="1">
          <mxGeometry x="360" y="40" width="200" height="60" as="geometry" />
        </mxCell>
        <mxCell id="QXeWcQ7BzbgW_pBV_HTd-11" value="" style="endArrow=none;dashed=1;html=1;rounded=0;entryX=0.5;entryY=1;entryDx=0;entryDy=0;" parent="1" target="QXeWcQ7BzbgW_pBV_HTd-10" edge="1">
          <mxGeometry width="50" height="50" relative="1" as="geometry">
            <mxPoint x="220" y="840" as="sourcePoint" />
            <mxPoint x="221" y="778" as="targetPoint" />
          </mxGeometry>
        </mxCell>
        <mxCell id="QXeWcQ7BzbgW_pBV_HTd-10" value="" style="rounded=1;whiteSpace=wrap;html=1;" parent="1" vertex="1">
          <mxGeometry x="215" y="230" width="10" height="580" as="geometry" />
        </mxCell>
        <mxCell id="QXeWcQ7BzbgW_pBV_HTd-13" value="" style="endArrow=none;dashed=1;html=1;rounded=0;" parent="1" edge="1">
          <mxGeometry width="50" height="50" relative="1" as="geometry">
            <mxPoint x="700.5" y="802" as="sourcePoint" />
            <mxPoint x="701" y="840" as="targetPoint" />
          </mxGeometry>
        </mxCell>
        <mxCell id="QXeWcQ7BzbgW_pBV_HTd-12" value="" style="rounded=1;whiteSpace=wrap;html=1;" parent="1" vertex="1">
          <mxGeometry x="695" y="160" width="10" height="650" as="geometry" />
        </mxCell>
        <mxCell id="QXeWcQ7BzbgW_pBV_HTd-21" value="" style="endArrow=none;dashed=1;html=1;rounded=0;entryX=0.5;entryY=1;entryDx=0;entryDy=0;" parent="1" target="QXeWcQ7BzbgW_pBV_HTd-18" edge="1">
          <mxGeometry width="50" height="50" relative="1" as="geometry">
            <mxPoint x="378" y="840" as="sourcePoint" />
            <mxPoint x="378" y="778" as="targetPoint" />
          </mxGeometry>
        </mxCell>
        <mxCell id="QXeWcQ7BzbgW_pBV_HTd-18" value="" style="rounded=1;whiteSpace=wrap;html=1;" parent="1" vertex="1">
          <mxGeometry x="372" y="170" width="10" height="640" as="geometry" />
        </mxCell>
        <mxCell id="QXeWcQ7BzbgW_pBV_HTd-23" value="" style="endArrow=none;dashed=1;html=1;rounded=0;entryX=0.5;entryY=1;entryDx=0;entryDy=0;" parent="1" target="QXeWcQ7BzbgW_pBV_HTd-22" edge="1">
          <mxGeometry width="50" height="50" relative="1" as="geometry">
            <mxPoint x="538" y="840" as="sourcePoint" />
            <mxPoint x="538" y="778" as="targetPoint" />
          </mxGeometry>
        </mxCell>
        <mxCell id="QXeWcQ7BzbgW_pBV_HTd-22" value="" style="rounded=1;whiteSpace=wrap;html=1;" parent="1" vertex="1">
          <mxGeometry x="532" y="450" width="10" height="360" as="geometry" />
        </mxCell>
        <mxCell id="QXeWcQ7BzbgW_pBV_HTd-14" value="connect" style="endArrow=classic;html=1;rounded=0;exitX=1;exitY=0.051;exitDx=0;exitDy=0;exitPerimeter=0;entryX=-0.2;entryY=0.127;entryDx=0;entryDy=0;entryPerimeter=0;" parent="1" target="QXeWcQ7BzbgW_pBV_HTd-12" edge="1">
          <mxGeometry width="50" height="50" relative="1" as="geometry">
            <mxPoint x="227" y="239.99999999999997" as="sourcePoint" />
            <mxPoint x="693" y="242.17000000000004" as="targetPoint" />
          </mxGeometry>
        </mxCell>
        <mxCell id="QXeWcQ7BzbgW_pBV_HTd-24" value="" style="endArrow=classic;html=1;rounded=0;exitX=0.9;exitY=0.051;exitDx=0;exitDy=0;exitPerimeter=0;entryX=-0.1;entryY=0.061;entryDx=0;entryDy=0;entryPerimeter=0;" parent="1" source="QXeWcQ7BzbgW_pBV_HTd-18" target="QXeWcQ7BzbgW_pBV_HTd-12" edge="1">
          <mxGeometry width="50" height="50" relative="1" as="geometry">
            <mxPoint x="390" y="250" as="sourcePoint" />
            <mxPoint x="440" y="200" as="targetPoint" />
          </mxGeometry>
        </mxCell>
        <mxCell id="QXeWcQ7BzbgW_pBV_HTd-27" value="connect" style="edgeLabel;html=1;align=center;verticalAlign=middle;resizable=0;points=[];" parent="QXeWcQ7BzbgW_pBV_HTd-24" vertex="1" connectable="0">
          <mxGeometry x="-0.2843" y="3" relative="1" as="geometry">
            <mxPoint x="-33" y="3" as="offset" />
          </mxGeometry>
        </mxCell>
        <mxCell id="QXeWcQ7BzbgW_pBV_HTd-29" value="ready" style="endArrow=classic;html=1;rounded=0;exitX=1;exitY=0.051;exitDx=0;exitDy=0;exitPerimeter=0;" parent="1" edge="1">
          <mxGeometry width="50" height="50" relative="1" as="geometry">
            <mxPoint x="226" y="280" as="sourcePoint" />
            <mxPoint x="695" y="280" as="targetPoint" />
          </mxGeometry>
        </mxCell>
        <mxCell id="QXeWcQ7BzbgW_pBV_HTd-31" value="" style="endArrow=classic;html=1;rounded=0;exitX=0.2;exitY=0.286;exitDx=0;exitDy=0;exitPerimeter=0;entryX=1.2;entryY=0.292;entryDx=0;entryDy=0;entryPerimeter=0;" parent="1" edge="1">
          <mxGeometry width="50" height="50" relative="1" as="geometry">
            <mxPoint x="693" y="300.76" as="sourcePoint" />
            <mxPoint x="381" y="300" as="targetPoint" />
          </mxGeometry>
        </mxCell>
        <mxCell id="QXeWcQ7BzbgW_pBV_HTd-32" value="ready" style="edgeLabel;html=1;align=center;verticalAlign=middle;resizable=0;points=[];" parent="QXeWcQ7BzbgW_pBV_HTd-31" vertex="1" connectable="0">
          <mxGeometry x="0.0473" y="-1" relative="1" as="geometry">
            <mxPoint x="-73" as="offset" />
          </mxGeometry>
        </mxCell>
        <mxCell id="QXeWcQ7BzbgW_pBV_HTd-33" value="" style="endArrow=classic;html=1;rounded=0;exitX=0.9;exitY=0.051;exitDx=0;exitDy=0;exitPerimeter=0;entryX=-0.1;entryY=0.061;entryDx=0;entryDy=0;entryPerimeter=0;" parent="1" edge="1">
          <mxGeometry width="50" height="50" relative="1" as="geometry">
            <mxPoint x="382" y="341" as="sourcePoint" />
            <mxPoint x="695" y="340" as="targetPoint" />
          </mxGeometry>
        </mxCell>
        <mxCell id="QXeWcQ7BzbgW_pBV_HTd-38" value="offer" style="edgeLabel;html=1;align=center;verticalAlign=middle;resizable=0;points=[];" parent="QXeWcQ7BzbgW_pBV_HTd-33" vertex="1" connectable="0">
          <mxGeometry x="-0.4377" y="-1" relative="1" as="geometry">
            <mxPoint x="-10" as="offset" />
          </mxGeometry>
        </mxCell>
        <mxCell id="QXeWcQ7BzbgW_pBV_HTd-39" value="" style="endArrow=classic;html=1;rounded=0;exitX=-0.1;exitY=0.373;exitDx=0;exitDy=0;exitPerimeter=0;" parent="1" edge="1">
          <mxGeometry width="50" height="50" relative="1" as="geometry">
            <mxPoint x="692.5" y="359.36" as="sourcePoint" />
            <mxPoint x="227.5" y="360.64" as="targetPoint" />
          </mxGeometry>
        </mxCell>
        <mxCell id="QXeWcQ7BzbgW_pBV_HTd-42" value="offer" style="edgeLabel;html=1;align=center;verticalAlign=middle;resizable=0;points=[];" parent="QXeWcQ7BzbgW_pBV_HTd-39" vertex="1" connectable="0">
          <mxGeometry x="-0.0709" y="2" relative="1" as="geometry">
            <mxPoint x="-18" as="offset" />
          </mxGeometry>
        </mxCell>
        <mxCell id="QXeWcQ7BzbgW_pBV_HTd-43" value="answer" style="endArrow=classic;html=1;rounded=0;exitX=1;exitY=0.051;exitDx=0;exitDy=0;exitPerimeter=0;" parent="1" edge="1">
          <mxGeometry width="50" height="50" relative="1" as="geometry">
            <mxPoint x="225" y="400" as="sourcePoint" />
            <mxPoint x="694" y="400" as="targetPoint" />
          </mxGeometry>
        </mxCell>
        <mxCell id="QXeWcQ7BzbgW_pBV_HTd-45" value="Create PC" style="rounded=0;whiteSpace=wrap;html=1;" parent="1" vertex="1">
          <mxGeometry x="292" y="290" width="80" height="20" as="geometry" />
        </mxCell>
        <mxCell id="QXeWcQ7BzbgW_pBV_HTd-46" value="Create PC" style="rounded=0;whiteSpace=wrap;html=1;" parent="1" vertex="1">
          <mxGeometry x="135" y="350" width="80" height="20" as="geometry" />
        </mxCell>
        <mxCell id="QXeWcQ7BzbgW_pBV_HTd-47" value="New Client" style="rounded=0;whiteSpace=wrap;html=1;" parent="1" vertex="1">
          <mxGeometry x="705" y="230" width="90" height="20" as="geometry" />
        </mxCell>
        <mxCell id="QXeWcQ7BzbgW_pBV_HTd-48" value="New Client" style="rounded=0;whiteSpace=wrap;html=1;" parent="1" vertex="1">
          <mxGeometry x="705" y="190" width="90" height="20" as="geometry" />
        </mxCell>
        <mxCell id="QXeWcQ7BzbgW_pBV_HTd-50" value="" style="endArrow=classic;html=1;rounded=0;exitX=0.2;exitY=0.286;exitDx=0;exitDy=0;exitPerimeter=0;entryX=1.2;entryY=0.292;entryDx=0;entryDy=0;entryPerimeter=0;" parent="1" edge="1">
          <mxGeometry width="50" height="50" relative="1" as="geometry">
            <mxPoint x="693" y="420.76" as="sourcePoint" />
            <mxPoint x="381" y="420" as="targetPoint" />
          </mxGeometry>
        </mxCell>
        <mxCell id="QXeWcQ7BzbgW_pBV_HTd-51" value="answer" style="edgeLabel;html=1;align=center;verticalAlign=middle;resizable=0;points=[];" parent="QXeWcQ7BzbgW_pBV_HTd-50" vertex="1" connectable="0">
          <mxGeometry x="0.0473" y="-1" relative="1" as="geometry">
            <mxPoint x="-70" y="1" as="offset" />
          </mxGeometry>
        </mxCell>
        <mxCell id="QXeWcQ7BzbgW_pBV_HTd-52" value="" style="endArrow=classic;html=1;rounded=0;exitX=0.8;exitY=0.107;exitDx=0;exitDy=0;exitPerimeter=0;entryX=0.033;entryY=0.547;entryDx=0;entryDy=0;entryPerimeter=0;" parent="1" edge="1">
          <mxGeometry width="50" height="50" relative="1" as="geometry">
            <mxPoint x="542" y="479.96000000000004" as="sourcePoint" />
            <mxPoint x="695.3299999999999" y="480.0799999999999" as="targetPoint" />
          </mxGeometry>
        </mxCell>
        <mxCell id="QXeWcQ7BzbgW_pBV_HTd-53" value="connect" style="edgeLabel;html=1;align=center;verticalAlign=middle;resizable=0;points=[];" parent="QXeWcQ7BzbgW_pBV_HTd-52" vertex="1" connectable="0">
          <mxGeometry x="-0.2843" y="3" relative="1" as="geometry">
            <mxPoint x="11" y="3" as="offset" />
          </mxGeometry>
        </mxCell>
        <mxCell id="QXeWcQ7BzbgW_pBV_HTd-54" value="New Client" style="rounded=0;whiteSpace=wrap;html=1;" parent="1" vertex="1">
          <mxGeometry x="705" y="470" width="90" height="20" as="geometry" />
        </mxCell>
        <mxCell id="QXeWcQ7BzbgW_pBV_HTd-56" value="" style="endArrow=classic;html=1;rounded=0;exitX=0.9;exitY=0.051;exitDx=0;exitDy=0;exitPerimeter=0;entryX=-0.133;entryY=0.593;entryDx=0;entryDy=0;entryPerimeter=0;" parent="1" edge="1">
          <mxGeometry width="50" height="50" relative="1" as="geometry">
            <mxPoint x="542" y="511" as="sourcePoint" />
            <mxPoint x="693.6700000000001" y="509.52" as="targetPoint" />
          </mxGeometry>
        </mxCell>
        <mxCell id="QXeWcQ7BzbgW_pBV_HTd-57" value="join" style="edgeLabel;html=1;align=center;verticalAlign=middle;resizable=0;points=[];" parent="QXeWcQ7BzbgW_pBV_HTd-56" vertex="1" connectable="0">
          <mxGeometry x="-0.2843" y="3" relative="1" as="geometry">
            <mxPoint x="11" y="3" as="offset" />
          </mxGeometry>
        </mxCell>
        <mxCell id="QXeWcQ7BzbgW_pBV_HTd-58" value="" style="endArrow=classic;html=1;rounded=0;exitX=-0.067;exitY=0.622;exitDx=0;exitDy=0;exitPerimeter=0;entryX=1.262;entryY=0.658;entryDx=0;entryDy=0;entryPerimeter=0;" parent="1" edge="1">
          <mxGeometry width="50" height="50" relative="1" as="geometry">
            <mxPoint x="694.3299999999999" y="528.0799999999999" as="sourcePoint" />
            <mxPoint x="384.6199999999999" y="529.22" as="targetPoint" />
          </mxGeometry>
        </mxCell>
        <mxCell id="QXeWcQ7BzbgW_pBV_HTd-59" value="join" style="edgeLabel;html=1;align=center;verticalAlign=middle;resizable=0;points=[];" parent="QXeWcQ7BzbgW_pBV_HTd-58" vertex="1" connectable="0">
          <mxGeometry x="-0.2843" y="3" relative="1" as="geometry">
            <mxPoint x="-123" y="-3" as="offset" />
          </mxGeometry>
        </mxCell>
        <mxCell id="QXeWcQ7BzbgW_pBV_HTd-60" value="" style="endArrow=classic;html=1;rounded=0;exitX=0.1;exitY=0.602;exitDx=0;exitDy=0;exitPerimeter=0;" parent="1" source="QXeWcQ7BzbgW_pBV_HTd-12" edge="1">
          <mxGeometry width="50" height="50" relative="1" as="geometry">
            <mxPoint x="692.1700000000001" y="549.9999999999999" as="sourcePoint" />
            <mxPoint x="225" y="550.36" as="targetPoint" />
          </mxGeometry>
        </mxCell>
        <mxCell id="QXeWcQ7BzbgW_pBV_HTd-61" value="join" style="edgeLabel;html=1;align=center;verticalAlign=middle;resizable=0;points=[];" parent="QXeWcQ7BzbgW_pBV_HTd-60" vertex="1" connectable="0">
          <mxGeometry x="-0.2843" y="3" relative="1" as="geometry">
            <mxPoint x="-68" y="-1" as="offset" />
          </mxGeometry>
        </mxCell>
        <mxCell id="QXeWcQ7BzbgW_pBV_HTd-62" value="ready" style="endArrow=classic;html=1;rounded=0;exitX=1;exitY=0.051;exitDx=0;exitDy=0;exitPerimeter=0;" parent="1" edge="1">
          <mxGeometry width="50" height="50" relative="1" as="geometry">
            <mxPoint x="226" y="580" as="sourcePoint" />
            <mxPoint x="695" y="580" as="targetPoint" />
          </mxGeometry>
        </mxCell>
        <mxCell id="QXeWcQ7BzbgW_pBV_HTd-63" value="" style="endArrow=classic;html=1;rounded=0;exitX=0.2;exitY=0.286;exitDx=0;exitDy=0;exitPerimeter=0;" parent="1" edge="1">
          <mxGeometry width="50" height="50" relative="1" as="geometry">
            <mxPoint x="695" y="600.76" as="sourcePoint" />
            <mxPoint x="542" y="600" as="targetPoint" />
          </mxGeometry>
        </mxCell>
        <mxCell id="QXeWcQ7BzbgW_pBV_HTd-64" value="ready" style="edgeLabel;html=1;align=center;verticalAlign=middle;resizable=0;points=[];" parent="QXeWcQ7BzbgW_pBV_HTd-63" vertex="1" connectable="0">
          <mxGeometry x="0.0473" y="-1" relative="1" as="geometry">
            <mxPoint x="-3" y="1" as="offset" />
          </mxGeometry>
        </mxCell>
        <mxCell id="QXeWcQ7BzbgW_pBV_HTd-65" value="Create PC" style="rounded=0;whiteSpace=wrap;html=1;" parent="1" vertex="1">
          <mxGeometry x="452" y="590" width="80" height="20" as="geometry" />
        </mxCell>
        <mxCell id="QXeWcQ7BzbgW_pBV_HTd-66" value="" style="endArrow=classic;html=1;rounded=0;exitX=0.2;exitY=0.286;exitDx=0;exitDy=0;exitPerimeter=0;entryX=1.2;entryY=0.292;entryDx=0;entryDy=0;entryPerimeter=0;" parent="1" edge="1">
          <mxGeometry width="50" height="50" relative="1" as="geometry">
            <mxPoint x="694" y="620.76" as="sourcePoint" />
            <mxPoint x="382" y="620" as="targetPoint" />
          </mxGeometry>
        </mxCell>
        <mxCell id="QXeWcQ7BzbgW_pBV_HTd-67" value="ready" style="edgeLabel;html=1;align=center;verticalAlign=middle;resizable=0;points=[];" parent="QXeWcQ7BzbgW_pBV_HTd-66" vertex="1" connectable="0">
          <mxGeometry x="0.0473" y="-1" relative="1" as="geometry">
            <mxPoint x="-73" as="offset" />
          </mxGeometry>
        </mxCell>
        <mxCell id="QXeWcQ7BzbgW_pBV_HTd-68" value="" style="verticalLabelPosition=bottom;verticalAlign=top;html=1;shape=mxgraph.basic.x" parent="1" vertex="1">
          <mxGeometry x="367" y="520" width="20" height="20" as="geometry" />
        </mxCell>
        <mxCell id="QXeWcQ7BzbgW_pBV_HTd-69" value="" style="verticalLabelPosition=bottom;verticalAlign=top;html=1;shape=mxgraph.basic.x" parent="1" vertex="1">
          <mxGeometry x="367" y="610" width="20" height="20" as="geometry" />
        </mxCell>
        <mxCell id="QXeWcQ7BzbgW_pBV_HTd-70" value="" style="endArrow=classic;html=1;rounded=0;exitX=0.9;exitY=0.675;exitDx=0;exitDy=0;exitPerimeter=0;entryX=-0.1;entryY=0.061;entryDx=0;entryDy=0;entryPerimeter=0;" parent="1" edge="1">
          <mxGeometry width="50" height="50" relative="1" as="geometry">
            <mxPoint x="541" y="669" as="sourcePoint" />
            <mxPoint x="695" y="670" as="targetPoint" />
          </mxGeometry>
        </mxCell>
        <mxCell id="QXeWcQ7BzbgW_pBV_HTd-71" value="offer" style="edgeLabel;html=1;align=center;verticalAlign=middle;resizable=0;points=[];" parent="QXeWcQ7BzbgW_pBV_HTd-70" vertex="1" connectable="0">
          <mxGeometry x="-0.4377" y="-1" relative="1" as="geometry">
            <mxPoint x="26" as="offset" />
          </mxGeometry>
        </mxCell>
        <mxCell id="QXeWcQ7BzbgW_pBV_HTd-72" value="" style="endArrow=classic;html=1;rounded=0;exitX=-0.1;exitY=0.373;exitDx=0;exitDy=0;exitPerimeter=0;entryX=1;entryY=0.868;entryDx=0;entryDy=0;entryPerimeter=0;" parent="1" edge="1">
          <mxGeometry width="50" height="50" relative="1" as="geometry">
            <mxPoint x="695" y="710" as="sourcePoint" />
            <mxPoint x="225" y="710.04" as="targetPoint" />
          </mxGeometry>
        </mxCell>
        <mxCell id="QXeWcQ7BzbgW_pBV_HTd-73" value="offer" style="edgeLabel;html=1;align=center;verticalAlign=middle;resizable=0;points=[];" parent="QXeWcQ7BzbgW_pBV_HTd-72" vertex="1" connectable="0">
          <mxGeometry x="-0.0709" y="2" relative="1" as="geometry">
            <mxPoint x="-17" as="offset" />
          </mxGeometry>
        </mxCell>
        <mxCell id="QXeWcQ7BzbgW_pBV_HTd-74" value="Create PC" style="rounded=0;whiteSpace=wrap;html=1;" parent="1" vertex="1">
          <mxGeometry x="135" y="700" width="80" height="20" as="geometry" />
        </mxCell>
        <mxCell id="QXeWcQ7BzbgW_pBV_HTd-76" value="answer" style="endArrow=classic;html=1;rounded=0;exitX=1;exitY=0.051;exitDx=0;exitDy=0;exitPerimeter=0;" parent="1" edge="1">
          <mxGeometry width="50" height="50" relative="1" as="geometry">
            <mxPoint x="226" y="740" as="sourcePoint" />
            <mxPoint x="695" y="740" as="targetPoint" />
          </mxGeometry>
        </mxCell>
        <mxCell id="QXeWcQ7BzbgW_pBV_HTd-77" value="" style="endArrow=classic;html=1;rounded=0;exitX=0.2;exitY=0.286;exitDx=0;exitDy=0;exitPerimeter=0;entryX=1.2;entryY=0.929;entryDx=0;entryDy=0;entryPerimeter=0;" parent="1" edge="1">
          <mxGeometry width="50" height="50" relative="1" as="geometry">
            <mxPoint x="695" y="759.64" as="sourcePoint" />
            <mxPoint x="545" y="758.9999999999999" as="targetPoint" />
          </mxGeometry>
        </mxCell>
        <mxCell id="QXeWcQ7BzbgW_pBV_HTd-78" value="answer" style="edgeLabel;html=1;align=center;verticalAlign=middle;resizable=0;points=[];" parent="QXeWcQ7BzbgW_pBV_HTd-77" vertex="1" connectable="0">
          <mxGeometry x="0.0473" y="-1" relative="1" as="geometry">
            <mxPoint x="-5" y="1" as="offset" />
          </mxGeometry>
        </mxCell>
        <mxCell id="QXeWcQ7BzbgW_pBV_HTd-79" value="" style="endArrow=classic;html=1;rounded=0;exitX=0.2;exitY=0.286;exitDx=0;exitDy=0;exitPerimeter=0;entryX=1;entryY=1;entryDx=0;entryDy=0;" parent="1" edge="1">
          <mxGeometry width="50" height="50" relative="1" as="geometry">
            <mxPoint x="693.5" y="780" as="sourcePoint" />
            <mxPoint x="380.5" y="780.24" as="targetPoint" />
          </mxGeometry>
        </mxCell>
        <mxCell id="QXeWcQ7BzbgW_pBV_HTd-80" value="answer" style="edgeLabel;html=1;align=center;verticalAlign=middle;resizable=0;points=[];" parent="QXeWcQ7BzbgW_pBV_HTd-79" vertex="1" connectable="0">
          <mxGeometry x="0.0473" y="-1" relative="1" as="geometry">
            <mxPoint x="-5" y="1" as="offset" />
          </mxGeometry>
        </mxCell>
        <mxCell id="QXeWcQ7BzbgW_pBV_HTd-81" value="" style="verticalLabelPosition=bottom;verticalAlign=top;html=1;shape=mxgraph.basic.x" parent="1" vertex="1">
          <mxGeometry x="367" y="770" width="20" height="20" as="geometry" />
        </mxCell>
        <mxCell id="QXeWcQ7BzbgW_pBV_HTd-83" value="" style="endArrow=classic;html=1;rounded=0;exitX=0.2;exitY=0.286;exitDx=0;exitDy=0;exitPerimeter=0;entryX=1;entryY=1;entryDx=0;entryDy=0;" parent="1" edge="1">
          <mxGeometry width="50" height="50" relative="1" as="geometry">
            <mxPoint x="695" y="690" as="sourcePoint" />
            <mxPoint x="382" y="690.24" as="targetPoint" />
          </mxGeometry>
        </mxCell>
        <mxCell id="QXeWcQ7BzbgW_pBV_HTd-84" value="offer" style="edgeLabel;html=1;align=center;verticalAlign=middle;resizable=0;points=[];" parent="QXeWcQ7BzbgW_pBV_HTd-83" vertex="1" connectable="0">
          <mxGeometry x="0.0473" y="-1" relative="1" as="geometry">
            <mxPoint x="-71" y="3" as="offset" />
          </mxGeometry>
        </mxCell>
        <mxCell id="QXeWcQ7BzbgW_pBV_HTd-85" value="" style="verticalLabelPosition=bottom;verticalAlign=top;html=1;shape=mxgraph.basic.x" parent="1" vertex="1">
          <mxGeometry x="367" y="680" width="20" height="20" as="geometry" />
        </mxCell>
      </root>
    </mxGraphModel>
  </diagram>
</mxfile>
